<?xml version="1.0" encoding="utf-8"?>
<!-- Generator: Adobe Illustrator 15.0.0, SVG Export Plug-In . SVG Version: 6.00 Build 0)  -->
<!DOCTYPE svg PUBLIC "-//W3C//DTD SVG 1.1//EN" "http://www.w3.org/Graphics/SVG/1.1/DTD/svg11.dtd">
<svg version="1.1" id="Layer_1" xmlns="http://www.w3.org/2000/svg" xmlns:xlink="http://www.w3.org/1999/xlink" x="0px" y="0px"
	 width="600px" height="130px" viewBox="0 0 600 130" enable-background="new 0 0 600 130" xml:space="preserve">
<g>
	<path d="M21.426,78.098L8.596,29.522H3.308v-9.598h23.406v9.598H20.74l12.73,48.576H21.426z M30.925,56.162l7.346-26.542
		l5.387,16.846l-8.03,27.911L30.925,56.162z M56.585,78.098L38.467,19.924h12.34l17.922,58.173H56.585z M64.714,55.281l6.952-25.759
		h-5.975v-9.598h22.623v9.598h-5.288L70.785,73.887L64.714,55.281z"/>
	<path d="M167.741,19.924V68.5h5.581v9.598h-23.211V68.5h5.583V29.522h-5.583v-9.598H167.741z M179.688,45.876
		c2.547-1.665,4.407-3.818,4.407-7.442c0-6.268-4.7-8.912-12.045-8.912h-1.078v-9.598h0.979c15.181,0,24.386,5.483,24.386,18.412
		c0,7.833-4.701,12.927-9.793,15.67L179.688,45.876z M194.379,68.5h7.442v9.598h-14.787l-16.062-19.684V48.228h6.365L194.379,68.5z"
		/>
	<path d="M224.639,68.5h5.583v9.598h-23.211V68.5h5.582V29.522h-5.582v-9.598h23.211v9.598h-5.583V68.5z M234.041,42.156
		l24.289,26.346h5.68V78.1h-26.442v-9.598h5.682l-16.16-17.336L234.041,42.156z M236.098,39.805l7.345-10.283h-5.875v-9.598h23.994
		v9.598h-5.681l-13.026,17.14L236.098,39.805z"/>
	<path d="M286.631,19.924v58.173h-17.237V68.5h5.582V29.522h-5.582v-9.598H286.631z M289.862,53.516V44.31h1.273
		c7.247,0,10.675-2.84,10.675-7.736c0-5.19-3.819-7.052-9.794-7.052h-2.154v-9.598h2.252c12.438,0,21.547,3.623,21.547,15.376
		c0,6.953-4.799,11.85-10.97,12.928c7.935,0.686,13.614,5.484,13.614,13.612c0,10.773-8.129,16.257-25.269,16.257h-1.176V68.5h2.741
		c7.347,0,11.459-2.154,11.459-7.247c0-5.484-4.309-7.737-10.968-7.737H289.862z"/>
	<path d="M322.961,19.924h17.629v58.173h-17.629V68.5h5.584V29.522h-5.584V19.924z M356.358,29.522h-12.536v-9.598h23.016V37.16
		h-10.479V29.522L356.358,29.522z M343.822,53.712v-9.598h12.83v9.598H343.822z M343.822,78.098V68.5h13.123v-7.639h10.48v17.237
		H343.822L343.822,78.098z"/>
	<path d="M422.365,78.098l-40.446-48.576h-6.856v-9.598h15.278l40.447,49.654v8.52H422.365z M392.594,46.857v21.645h5.679V78.1
		h-23.21v-9.598h5.583V33.047L392.594,46.857z M418.841,50.382v-20.86h-5.682v-9.598h23.311v9.598h-5.682v35.355L418.841,50.382z"/>
	<path d="M443.073,64.66c3.905,0,7.174,3.178,7.174,7.082s-3.269,7.084-7.174,7.084c-3.904,0-7.084-3.18-7.084-7.084
		C435.989,67.836,439.168,64.66,443.073,64.66z"/>
	<path d="M480.603,18.945c0.687,0,2.252,0.098,2.938,0.195v10.871c-0.686-0.196-2.057-0.196-2.839-0.196
		c-10.772,0-17.824,7.738-17.824,19.197c0,11.653,7.64,19.195,18.117,19.195c6.758,0,12.146-1.959,16.942-5.975v12.536
		c-5.386,3.232-11.457,4.311-17.334,4.311c-18.118,0-30.066-12.342-30.066-30.066C450.535,31.187,462.876,18.945,480.603,18.945z
		 M486.772,19.63c3.722,0.49,7.443,1.469,10.479,3.232v15.277h-10.479V19.63L486.772,19.63z"/>
	<path d="M523.593,68.5h5.582v9.598h-23.211V68.5h5.584V29.522h-5.584v-9.598h23.211v9.598h-5.582V68.5z M526.824,43.919h20.566
		v9.597h-20.566V43.919z M550.622,29.522h-5.581v-9.598h23.31v9.598h-5.681v38.98h5.681V78.1h-23.31v-9.598h5.581V29.522z"/>
	<g>
		<path d="M6.742,2.966v11.89h-2.18V2.966H2.247V1h6.831v1.966H6.742z"/>
		<path d="M15.538,14.856V8.785h-2.705v6.071h-2.18V1h2.18v5.818h2.705V1h2.18v13.856H15.538z"/>
		<path d="M20.053,14.856V1h5.818v1.966h-3.641v3.931h3.133v1.966h-3.133v4.027h3.641v1.966H20.053z"/>
	</g>
	<path d="M112.881,65.896c-8.951-2.833-13.908-12.386-11.07-21.339c0.729-2.306,1.933-4.321,3.432-6.031l-7.654-8.568l-9.957,9.098
		c-0.451,0.413-0.712,1.241-0.581,1.837l6.563,29.794c0.13,0.6,0.717,1.24,1.301,1.424l29.083,9.213
		c0.583,0.186,1.43-0.002,1.883-0.416l9.481-8.664l-7.68-8.598C123.507,66.537,118.099,67.551,112.881,65.896z M141.117,27.272
		l-29.083-9.211c-0.582-0.186-1.431,0.001-1.882,0.416l-9.981,9.122l7.619,8.529c4.243-3.193,9.909-4.366,15.358-2.639
		c8.952,2.835,13.907,12.387,11.072,21.338c-0.803,2.535-2.166,4.732-3.883,6.539l7.607,8.518l10.455-9.555
		c0.451-0.412,0.713-1.239,0.582-1.838l-6.563-29.794C142.287,28.099,141.702,27.458,141.117,27.272z"/>
</g>
</svg>
