<?xml version="1.0" encoding="utf-8"?>
<!-- Generator: Adobe Illustrator 15.0.2, SVG Export Plug-In . SVG Version: 6.00 Build 0)  -->
<!DOCTYPE svg PUBLIC "-//W3C//DTD SVG 1.1//EN" "http://www.w3.org/Graphics/SVG/1.1/DTD/svg11.dtd">
<svg version="1.1" id="Layer_1" xmlns="http://www.w3.org/2000/svg" xmlns:xlink="http://www.w3.org/1999/xlink" x="0px" y="0px"
	 width="614.5px" height="130px" viewBox="0 0 614.5 130" enable-background="new 0 0 614.5 130" xml:space="preserve">
<g>
	<path fill="#FFFFFF" d="M22.989,84.383L9.114,31.847h-5.72v-10.38h25.314v10.38h-6.461l13.768,52.536H22.989z M33.263,60.659
		l7.945-28.706l5.827,18.219l-8.685,30.186L33.263,60.659z M61.015,84.383L41.42,21.467h13.346l19.382,62.916H61.015L61.015,84.383z
		 M69.807,59.707l7.519-27.859h-6.462v-10.38H95.33v10.38h-5.719L76.372,79.828L69.807,59.707z"/>
	<path fill="#FFFFFF" d="M181.232,21.467v52.536h6.036v10.38h-25.104v-10.38h6.038V31.847h-6.038v-10.38H181.232z M194.153,49.534
		c2.754-1.801,4.766-4.129,4.766-8.048c0-6.779-5.083-9.639-13.027-9.639h-1.165v-10.38h1.059c16.418,0,26.374,5.93,26.374,19.913
		c0,8.471-5.084,13.981-10.591,16.947L194.153,49.534z M210.042,74.003h8.049v10.38h-15.992l-17.371-21.288V52.078h6.883
		L210.042,74.003z"/>
	<path fill="#FFFFFF" d="M242.769,74.003h6.039v10.38h-25.103v-10.38h6.037V31.847h-6.037v-10.38h25.103v10.38h-6.039V74.003z
		 M252.937,45.511l26.27,28.494h6.143v10.38h-28.598v-10.38h6.146l-17.478-18.749L252.937,45.511z M255.162,42.969l7.944-11.122
		h-6.354v-10.38h25.95v10.38h-6.144L262.47,50.385L255.162,42.969z"/>
	<path fill="#FFFFFF" d="M309.814,21.467v62.916h-18.642v-10.38h6.037V31.847h-6.037v-10.38H309.814z M313.308,57.797v-9.957h1.378
		c7.837,0,11.546-3.071,11.546-8.367c0-5.614-4.131-7.627-10.594-7.627h-2.33v-10.38h2.437c13.452,0,23.304,3.918,23.304,16.629
		c0,7.52-5.19,12.816-11.864,13.982c8.582,0.742,14.724,5.931,14.724,14.722c0,11.651-8.791,17.583-27.328,17.583h-1.273v-10.38
		h2.966c7.946,0,12.394-2.33,12.394-7.838c0-5.931-4.662-8.368-11.863-8.368H313.308z"/>
	<path fill="#FFFFFF" d="M349.105,21.467h19.066v62.916h-19.066v-10.38h6.039V31.847h-6.039V21.467z M385.225,31.847h-13.557v-10.38
		h24.892v18.641h-11.332v-8.261H385.225z M371.668,58.009v-10.38h13.876v10.38H371.668z M371.668,84.383v-10.38h14.192v-8.262
		h11.334v18.642H371.668L371.668,84.383z"/>
	<path fill="#FFFFFF" d="M456.614,84.383L412.87,31.847h-7.415v-10.38h16.523l43.745,53.702v9.214H456.614L456.614,84.383z
		 M424.416,50.595v23.41h6.142v10.38h-25.103v-10.38h6.039V35.659L424.416,50.595z M452.802,54.407v-22.56h-6.145v-10.38h25.211
		v10.38h-6.145v38.238L452.802,54.407z"/>
	<path fill="#FFFFFF" d="M479.01,69.85c4.223,0,7.759,3.437,7.759,7.66c0,4.222-3.536,7.66-7.759,7.66s-7.661-3.438-7.661-7.66
		C471.349,73.284,474.786,69.85,479.01,69.85z"/>
	<path fill="#FFFFFF" d="M519.599,20.408c0.743,0,2.437,0.106,3.179,0.211v11.757c-0.742-0.212-2.226-0.212-3.071-0.212
		c-11.65,0-19.277,8.369-19.277,20.762c0,12.603,8.264,20.759,19.595,20.759c7.309,0,13.136-2.118,18.322-6.462v13.558
		c-5.825,3.495-12.39,4.663-18.747,4.663c-19.594,0-32.517-13.349-32.517-32.517C487.08,33.648,500.427,20.408,519.599,20.408z
		 M526.271,21.148c4.025,0.53,8.049,1.589,11.333,3.496v16.522h-11.333V21.148L526.271,21.148z"/>
	<path fill="#FFFFFF" d="M566.094,74.003h6.037v10.38h-25.104v-10.38h6.039V31.847h-6.039v-10.38h25.104v10.38h-6.037V74.003z
		 M569.589,47.418h22.242v10.379h-22.242V47.418z M595.326,31.847h-6.036v-10.38h25.21v10.38h-6.145v42.158h6.145v10.38h-25.21
		v-10.38h6.036V31.847z"/>
	<g>
		<path fill="#FFFFFF" d="M7.108,3.126v12.859H4.751V3.126H2.247V1h7.388v2.126H7.108z"/>
		<path fill="#FFFFFF" d="M16.622,15.985V9.42h-2.926v6.565h-2.358V1h2.358v6.292h2.926V1h2.357v14.985H16.622z"/>
		<path fill="#FFFFFF" d="M21.505,15.985V1h6.292v2.126h-3.938v4.252h3.388v2.126h-3.388v4.355h3.938v2.126H21.505z"/>
	</g>
	<path fill="#FFFFFF" d="M121.9,71.188c-9.68-3.064-15.042-13.397-11.972-23.08c0.788-2.494,2.09-4.674,3.712-6.523l-8.278-9.266
		l-10.769,9.84c-0.487,0.446-0.77,1.342-0.628,1.986l7.098,32.224c0.141,0.648,0.776,1.339,1.407,1.539l31.454,9.964
		c0.631,0.2,1.547-0.002,2.037-0.45l10.254-9.37l-8.306-9.299C133.392,71.88,127.543,72.977,121.9,71.188z M152.438,29.414
		l-31.454-9.962c-0.629-0.201-1.547,0.001-2.035,0.45l-10.795,9.866l8.24,9.224c4.589-3.454,10.718-4.722,16.61-2.854
		c9.682,3.066,15.041,13.396,11.975,23.078c-0.868,2.741-2.342,5.117-4.2,7.072l8.228,9.212l11.307-10.333
		c0.488-0.446,0.771-1.34,0.629-1.987l-7.097-32.224C153.704,30.308,153.071,29.615,152.438,29.414z"/>
</g>
</svg>
