<?xml version="1.0" encoding="utf-8"?>
<!-- Generator: Adobe Illustrator 13.0.0, SVG Export Plug-In  -->
<!DOCTYPE svg PUBLIC "-//W3C//DTD SVG 1.1//EN" "http://www.w3.org/Graphics/SVG/1.1/DTD/svg11.dtd" [
	<!ENTITY ns_flows "http://ns.adobe.com/Flows/1.0/">
]>
<svg version="1.1"
	 xmlns="http://www.w3.org/2000/svg" xmlns:xlink="http://www.w3.org/1999/xlink" xmlns:a="http://ns.adobe.com/AdobeSVGViewerExtensions/3.0/"
	 x="0px" y="0px" width="185px" height="126px" viewBox="0 -0.001 185 126" enable-background="new 0 -0.001 185 126"
	 xml:space="preserve">
<defs>
</defs>
<path fill="none" stroke="#FAA61A" stroke-width="1.9333" d="M183.65,87.682c0.74,3.88-1.807,7.627-5.688,8.366L24.897,125.251
	c-3.88,0.74-7.627-1.806-8.368-5.686l-15.435-80.9c-0.74-3.881,1.806-7.627,5.687-8.368L159.849,1.095
	c3.881-0.74,7.627,1.806,8.366,5.687L183.65,87.682z"/>
<line fill="none" stroke="#FAA61A" stroke-width="2" stroke-linecap="round" stroke-dasharray="5,5" x1="35.815" y1="107.184" x2="159.092" y2="83.664"/>
<path fill="#FAA61A" d="M115.616,46.749l2.036-0.389l-1.969-4.782L115.616,46.749z M66.951,50.202
	c-0.109-0.153-0.251-0.261-0.425-0.326c-0.174-0.063-0.384-0.073-0.628-0.026l-1.152,0.22l0.694,3.64l1.153-0.22
	c0.245-0.047,0.436-0.132,0.574-0.257c0.138-0.124,0.23-0.277,0.276-0.459c0.046-0.183,0.062-0.387,0.047-0.615
	c-0.015-0.228-0.045-0.464-0.092-0.709s-0.105-0.476-0.176-0.693C67.15,50.539,67.061,50.354,66.951,50.202z M159.849,1.095
	L6.781,30.297c-3.881,0.741-6.427,4.487-5.687,8.368l7.336,38.451L175.55,45.23l-7.336-38.451
	C167.476,2.899,163.73,0.354,159.849,1.095z M83.063,25.242c0.075-0.101,0.237-0.17,0.36-0.155l6.18,0.733
	c0.124,0.015,0.266,0.122,0.314,0.236l2.454,5.719c0.05,0.115,0.029,0.291-0.046,0.39l-1.729,2.314l-1.85-1.416
	c0.274-0.427,0.464-0.92,0.528-1.458c0.226-1.902-1.133-3.626-3.035-3.854c-1.158-0.137-2.248,0.315-2.977,1.116l-1.852-1.417
	L83.063,25.242z M77.599,45.869l1.77-0.338L81,54.081l-1.77,0.338L77.599,45.869z M34.714,66.373l-1.87,0.357l-0.994-5.21
	l-2.321,0.442l0.994,5.21l-1.87,0.356l-2.269-11.889l1.87-0.357l0.953,4.993l2.321-0.443l-0.953-4.993l1.87-0.355L34.714,66.373z
	 M38.588,65.634l-1.87,0.356l-2.269-11.89l1.87-0.357L38.588,65.634z M46.845,53.484l-2.004,0.382l1.947,10.204l-1.871,0.356
	L42.97,54.224l-1.987,0.379l-0.322-1.687l5.861-1.119L46.845,53.484z M56.206,62.272l-1.87,0.356l-0.994-5.21l-2.321,0.443
	l0.994,5.21l-1.87,0.357l-2.269-11.891l1.87-0.356l0.953,4.993l2.321-0.443l-0.953-4.993l1.87-0.357L56.206,62.272z M61.254,50.734
	l-3.123,0.596l0.644,3.373l2.689-0.513l0.322,1.687l-2.689,0.514l0.66,3.457l3.123-0.597l0.321,1.687l-4.993,0.953L55.939,50
	l4.993-0.952L61.254,50.734z M69.296,59.775l-2.483-4.58l-1.053,0.201l0.931,4.876l-1.87,0.355l-2.269-11.889l3.006-0.574
	c1.091-0.208,1.922-0.082,2.495,0.38c0.573,0.462,0.977,1.312,1.213,2.546c0.14,0.735,0.166,1.383,0.076,1.941
	c-0.089,0.561-0.379,1.036-0.869,1.429L71.25,59.4L69.296,59.775z M75.85,47.95l-3.123,0.596l0.644,3.373l2.689-0.513l0.322,1.688
	l-2.689,0.513l0.66,3.457l3.123-0.596l0.321,1.687l-4.993,0.953l-2.269-11.89l4.993-0.953L75.85,47.95z M81.788,57.393l-2.071,0.395
	l-0.392-2.054l2.071-0.396L81.788,57.393z M81.746,36.335l-2.455-5.719c-0.049-0.115-0.029-0.29,0.046-0.39l1.647-2.204l1.861,1.424
	c-0.235,0.4-0.399,0.85-0.458,1.339c-0.226,1.903,1.132,3.627,3.034,3.854c1.109,0.133,2.154-0.278,2.88-1.018l1.867,1.43
	l-1.57,2.099c-0.074,0.1-0.236,0.169-0.36,0.155l-6.18-0.734C81.937,36.558,81.794,36.451,81.746,36.335z M94.679,54.933
	l-1.871,0.356l-1.415-7.414l-0.691,5.186l-1.035,0.196l-2.501-4.489l1.399,7.331l-1.87,0.356l-2.269-11.89l1.687-0.322l3.496,5.806
	l1.097-6.682l1.703-0.325L94.679,54.933z M98.965,49.285l0.892,4.659l-1.871,0.357l-0.889-4.659l-3.685-6.791l2.069-0.396
	l2.066,4.486l0.287-4.936l2.055-0.392L98.965,49.285z M112.495,51.533l-1.652,0.315l-4.151-6.528l1.348,7.062l-1.871,0.357
	l-2.268-11.89l1.668-0.318l4.139,6.531L108.359,40l1.869-0.356L112.495,51.533z M119.258,50.242l-0.934-2.262l-2.757,0.525
	l-0.018,2.443l-1.971,0.376l0.654-12.447l1.82-0.347l5.155,11.338L119.258,50.242z M130.295,48.138l-1.869,0.356l-1.416-7.414
	l-0.688,5.186l-1.035,0.197l-2.5-4.489l1.398,7.331l-1.871,0.356l-2.269-11.89l1.687-0.322l3.496,5.806l1.098-6.682l1.703-0.325
	L130.295,48.138z M135.347,36.6l-3.123,0.596l0.645,3.374l2.688-0.513l0.322,1.687l-2.689,0.513l0.66,3.457l3.123-0.596l0.322,1.688
	l-4.994,0.952l-2.268-11.89l4.992-0.953L135.347,36.6z M143.771,45.566l-1.871,0.355l-2.268-11.89l1.869-0.355L143.771,45.566z
	 M151.029,42.381c-0.024,0.444-0.159,0.839-0.405,1.186c-0.201,0.281-0.479,0.53-0.836,0.748c-0.354,0.217-0.802,0.378-1.336,0.479
	c-1.013,0.193-1.83,0.078-2.453-0.346c-0.347-0.234-0.61-0.535-0.795-0.903c-0.188-0.368-0.341-0.869-0.461-1.504l1.868-0.356
	c0.062,0.322,0.136,0.583,0.22,0.779c0.084,0.197,0.209,0.361,0.371,0.492c0.106,0.072,0.233,0.126,0.387,0.16
	c0.147,0.035,0.332,0.032,0.543-0.009c0.41-0.079,0.688-0.247,0.838-0.506c0.095-0.168,0.146-0.359,0.15-0.574
	c0.004-0.214-0.025-0.483-0.086-0.806c-0.062-0.312-0.123-0.571-0.191-0.777c-0.067-0.206-0.155-0.371-0.268-0.494
	c-0.109-0.123-0.246-0.221-0.41-0.293s-0.371-0.131-0.623-0.176l-1.531-0.313c-0.321-0.064-0.604-0.154-0.846-0.271
	c-0.242-0.116-0.449-0.275-0.619-0.479c-0.172-0.204-0.319-0.461-0.44-0.771c-0.123-0.312-0.229-0.695-0.316-1.152
	c-0.102-0.534-0.111-1.031-0.033-1.491c0.08-0.459,0.254-0.863,0.521-1.216c0.213-0.271,0.477-0.503,0.793-0.696
	c0.313-0.191,0.684-0.329,1.104-0.409c0.927-0.177,1.685-0.072,2.275,0.31c0.368,0.241,0.655,0.564,0.86,0.97
	c0.203,0.405,0.361,0.893,0.469,1.459l-1.87,0.357c-0.052-0.267-0.113-0.503-0.187-0.708c-0.076-0.205-0.188-0.374-0.34-0.506
	c-0.223-0.2-0.523-0.265-0.902-0.191c-0.188,0.036-0.342,0.098-0.459,0.184c-0.115,0.085-0.209,0.187-0.278,0.304
	c-0.164,0.286-0.195,0.695-0.095,1.229c0.047,0.245,0.097,0.449,0.152,0.611c0.053,0.163,0.127,0.295,0.223,0.399
	c0.095,0.103,0.215,0.187,0.359,0.251s0.33,0.115,0.557,0.152l1.513,0.301c0.383,0.076,0.709,0.182,0.977,0.314
	c0.269,0.133,0.492,0.315,0.677,0.546c0.182,0.231,0.336,0.52,0.459,0.864c0.123,0.347,0.231,0.77,0.328,1.271
	C151.008,41.41,151.054,41.938,151.029,42.381z"/>
</svg>
